# xmcd CD database file
#
# Track frame offsets:
#	150
#	44886
#	84100
#	109344
#	142755
#	179663
#	211645
#	248103
#
# Disc length: 3703 seconds
#
# Revision: 0
# Processed by: cddbd v1.5.2PL0 Copyright (c) Steve Scherf et al.
# Submitted via: CDex 1.51
#
DISCID=690e7508
DTITLE=Joel Harrison - Harbour
DYEAR=2007
DGENRE=Jazz
TTITLE0=You bring the rain
TTITLE1=Blue ghosts of Bourbon street
TTITLE2=End time
TTITLE3=The refugee
TTITLE4=Hudson shining
TTITLE5=Harbor
TTITLE6=Amerivan Babylon
TTITLE7=Les fréres en ut majeur (brothers in C major)
EXTD=YEAR: 2007
EXTT0=
EXTT1=
EXTT2=
EXTT3=
EXTT4=
EXTT5=
EXTT6=
EXTT7=
PLAYORDER=
